<svg xmlns="http://www.w3.org/2000/svg" xmlns:xlink="http://www.w3.org/1999/xlink" width="500" zoomAndPan="magnify" viewBox="0 0 375 374.999991" height="500" preserveAspectRatio="xMidYMid meet" version="1.0"><defs><g/><clipPath id="7b2430921c"><path d="M 75 195 L 80 195 L 80 201 L 75 201 Z M 75 195 " clip-rule="nonzero"/></clipPath><clipPath id="56e453a215"><path d="M 63.3125 198.925781 L 64.804688 183.246094 L 80.484375 184.734375 L 78.992188 200.414062 Z M 63.3125 198.925781 " clip-rule="nonzero"/></clipPath><clipPath id="6609061101"><path d="M 63.3125 198.925781 L 64.804688 183.246094 L 80.484375 184.734375 L 78.992188 200.414062 Z M 63.3125 198.925781 " clip-rule="nonzero"/></clipPath><clipPath id="5f962a4b04"><path d="M 68 189 L 81 189 L 81 200 L 68 200 Z M 68 189 " clip-rule="nonzero"/></clipPath><clipPath id="41eddd2e9e"><path d="M 63.3125 198.925781 L 64.804688 183.246094 L 80.484375 184.734375 L 78.992188 200.414062 Z M 63.3125 198.925781 " clip-rule="nonzero"/></clipPath><clipPath id="c7ced441f2"><path d="M 63.3125 198.925781 L 64.804688 183.246094 L 80.484375 184.734375 L 78.992188 200.414062 Z M 63.3125 198.925781 " clip-rule="nonzero"/></clipPath><clipPath id="854fcaceff"><path d="M 63 184 L 81 184 L 81 200 L 63 200 Z M 63 184 " clip-rule="nonzero"/></clipPath><clipPath id="92d28ee541"><path d="M 63.3125 198.925781 L 64.804688 183.246094 L 80.484375 184.734375 L 78.992188 200.414062 Z M 63.3125 198.925781 " clip-rule="nonzero"/></clipPath><clipPath id="a9baa73658"><path d="M 63.3125 198.925781 L 64.804688 183.246094 L 80.484375 184.734375 L 78.992188 200.414062 Z M 63.3125 198.925781 " clip-rule="nonzero"/></clipPath><clipPath id="8dbb55db1f"><path d="M 121.488281 179.019531 L 128.238281 179.019531 L 128.238281 241.269531 L 121.488281 241.269531 Z M 121.488281 179.019531 " clip-rule="nonzero"/></clipPath><clipPath id="82f96ed69e"><path d="M 123 179.019531 L 128 179.019531 L 128 240 L 123 240 Z M 123 179.019531 " clip-rule="nonzero"/></clipPath><clipPath id="588edb7a7b"><path d="M 121.488281 185 L 127 185 L 127 241 L 121.488281 241 Z M 121.488281 185 " clip-rule="nonzero"/></clipPath><clipPath id="137cb48765"><path d="M 121.488281 179.019531 L 128.238281 179.019531 L 128.238281 241.269531 L 121.488281 241.269531 Z M 121.488281 179.019531 " clip-rule="nonzero"/></clipPath><clipPath id="b9b9af0407"><path d="M 128.167969 225 L 239.917969 225 L 239.917969 242 L 128.167969 242 Z M 128.167969 225 " clip-rule="nonzero"/></clipPath></defs><g clip-path="url(#7b2430921c)"><g clip-path="url(#56e453a215)"><g clip-path="url(#6609061101)"><path fill="#dedad5" d="M 77.527344 195.886719 C 77.820312 195.914062 78.09375 195.996094 78.351562 196.128906 C 78.609375 196.265625 78.832031 196.445312 79.019531 196.667969 C 79.203125 196.890625 79.339844 197.140625 79.425781 197.417969 C 79.511719 197.695312 79.542969 197.976562 79.515625 198.261719 C 79.488281 198.550781 79.40625 198.824219 79.269531 199.078125 C 79.132812 199.332031 78.953125 199.550781 78.726562 199.738281 C 78.5 199.921875 78.25 200.054688 77.96875 200.140625 C 77.691406 200.222656 77.40625 200.253906 77.113281 200.222656 C 76.824219 200.195312 76.550781 200.113281 76.292969 199.980469 C 76.035156 199.84375 75.8125 199.664062 75.625 199.441406 C 75.4375 199.21875 75.300781 198.96875 75.214844 198.691406 C 75.128906 198.414062 75.101562 198.132812 75.128906 197.847656 C 75.15625 197.558594 75.238281 197.285156 75.375 197.03125 C 75.511719 196.777344 75.691406 196.558594 75.917969 196.371094 C 76.140625 196.1875 76.394531 196.054688 76.671875 195.96875 C 76.953125 195.886719 77.238281 195.855469 77.527344 195.886719 Z M 77.527344 195.886719 " fill-opacity="1" fill-rule="nonzero"/></g></g></g><g clip-path="url(#5f962a4b04)"><g clip-path="url(#41eddd2e9e)"><g clip-path="url(#c7ced441f2)"><path fill="#dedad5" d="M 80.304688 189.945312 L 80.015625 193.019531 C 75.875 192.625 72.203125 195.625 71.8125 199.71875 L 68.707031 199.425781 C 69.257812 193.632812 74.449219 189.390625 80.304688 189.945312 Z M 80.304688 189.945312 " fill-opacity="1" fill-rule="nonzero"/></g></g></g><g clip-path="url(#854fcaceff)"><g clip-path="url(#92d28ee541)"><g clip-path="url(#a9baa73658)"><path fill="#dedad5" d="M 80.511719 187.777344 C 73.445312 187.105469 67.179688 192.226562 66.511719 199.214844 L 63.3125 198.910156 C 64.144531 190.175781 71.980469 183.773438 80.8125 184.613281 Z M 80.511719 187.777344 " fill-opacity="1" fill-rule="nonzero"/></g></g></g><g fill="#424241" fill-opacity="1"><g transform="translate(71.333517, 217.472095)"><g><path d="M 21.359375 -11.203125 C 21.359375 -8.890625 20.953125 -6.863281 20.140625 -5.125 C 19.328125 -3.382812 18.160156 -2.039062 16.640625 -1.09375 C 15.117188 -0.144531 13.375 0.328125 11.40625 0.328125 C 9.457031 0.328125 7.722656 -0.140625 6.203125 -1.078125 C 4.679688 -2.015625 3.5 -3.347656 2.65625 -5.078125 C 1.820312 -6.816406 1.398438 -8.8125 1.390625 -11.0625 L 1.390625 -12.234375 C 1.390625 -14.535156 1.804688 -16.566406 2.640625 -18.328125 C 3.472656 -20.085938 4.644531 -21.4375 6.15625 -22.375 C 7.675781 -23.3125 9.414062 -23.78125 11.375 -23.78125 C 13.332031 -23.78125 15.070312 -23.3125 16.59375 -22.375 C 18.113281 -21.4375 19.285156 -20.085938 20.109375 -18.328125 C 20.941406 -16.566406 21.359375 -14.539062 21.359375 -12.25 Z M 16.46875 -12.265625 C 16.46875 -14.722656 16.023438 -16.585938 15.140625 -17.859375 C 14.265625 -19.140625 13.007812 -19.78125 11.375 -19.78125 C 9.75 -19.78125 8.492188 -19.148438 7.609375 -17.890625 C 6.734375 -16.628906 6.289062 -14.78125 6.28125 -12.34375 L 6.28125 -11.203125 C 6.28125 -8.804688 6.71875 -6.945312 7.59375 -5.625 C 8.476562 -4.300781 9.75 -3.640625 11.40625 -3.640625 C 13.03125 -3.640625 14.273438 -4.273438 15.140625 -5.546875 C 16.015625 -6.816406 16.457031 -8.675781 16.46875 -11.125 Z M 16.46875 -12.265625 "/></g></g><g transform="translate(94.117695, 217.472095)"><g><path d="M 6.078125 -17.4375 L 6.21875 -15.421875 C 7.46875 -16.972656 9.140625 -17.75 11.234375 -17.75 C 13.078125 -17.75 14.445312 -17.207031 15.34375 -16.125 C 16.25 -15.039062 16.710938 -13.421875 16.734375 -11.265625 L 16.734375 0 L 12.078125 0 L 12.078125 -11.15625 C 12.078125 -12.144531 11.863281 -12.859375 11.4375 -13.296875 C 11.007812 -13.742188 10.296875 -13.96875 9.296875 -13.96875 C 7.984375 -13.96875 7 -13.410156 6.34375 -12.296875 L 6.34375 0 L 1.6875 0 L 1.6875 -17.4375 Z M 6.078125 -17.4375 "/></g></g><g transform="translate(112.599628, 217.472095)"><g><path d="M 6.703125 0 L 2.03125 0 L 2.03125 -24.75 L 6.703125 -24.75 Z M 6.703125 0 "/></g></g><g transform="translate(121.349139, 217.472095)"><g/></g><g transform="translate(129.566912, 217.472095)"><g><path d="M 6.078125 -17.4375 L 6.21875 -15.421875 C 7.46875 -16.972656 9.140625 -17.75 11.234375 -17.75 C 13.078125 -17.75 14.445312 -17.207031 15.34375 -16.125 C 16.25 -15.039062 16.710938 -13.421875 16.734375 -11.265625 L 16.734375 0 L 12.078125 0 L 12.078125 -11.15625 C 12.078125 -12.144531 11.863281 -12.859375 11.4375 -13.296875 C 11.007812 -13.742188 10.296875 -13.96875 9.296875 -13.96875 C 7.984375 -13.96875 7 -13.410156 6.34375 -12.296875 L 6.34375 0 L 1.6875 0 L 1.6875 -17.4375 Z M 6.078125 -17.4375 "/></g></g><g transform="translate(148.048844, 217.472095)"><g><path d="M 9.8125 0.328125 C 7.257812 0.328125 5.175781 -0.457031 3.5625 -2.03125 C 1.957031 -3.601562 1.15625 -5.691406 1.15625 -8.296875 L 1.15625 -8.75 C 1.15625 -10.5 1.492188 -12.0625 2.171875 -13.4375 C 2.847656 -14.820312 3.804688 -15.882812 5.046875 -16.625 C 6.285156 -17.375 7.703125 -17.75 9.296875 -17.75 C 11.679688 -17.75 13.554688 -17 14.921875 -15.5 C 16.296875 -14 16.984375 -11.867188 16.984375 -9.109375 L 16.984375 -7.203125 L 5.875 -7.203125 C 6.03125 -6.066406 6.484375 -5.15625 7.234375 -4.46875 C 7.992188 -3.78125 8.957031 -3.4375 10.125 -3.4375 C 11.914062 -3.4375 13.316406 -4.082031 14.328125 -5.375 L 16.609375 -2.8125 C 15.910156 -1.832031 14.960938 -1.0625 13.765625 -0.5 C 12.578125 0.0507812 11.257812 0.328125 9.8125 0.328125 Z M 9.28125 -13.984375 C 8.351562 -13.984375 7.601562 -13.671875 7.03125 -13.046875 C 6.457031 -12.429688 6.09375 -11.539062 5.9375 -10.375 L 12.40625 -10.375 L 12.40625 -10.75 C 12.382812 -11.78125 12.101562 -12.578125 11.5625 -13.140625 C 11.03125 -13.703125 10.269531 -13.984375 9.28125 -13.984375 Z M 9.28125 -13.984375 "/></g></g></g><g fill="#424241" fill-opacity="1"><g transform="translate(165.892105, 217.472095)"><g/></g><g transform="translate(174.109878, 217.472095)"><g/></g></g><g fill="#424241" fill-opacity="1"><g transform="translate(182.33351, 217.472095)"><g><path d="M 15.34375 -4.828125 L 6.859375 -4.828125 L 5.25 0 L 0.109375 0 L 8.84375 -23.46875 L 13.328125 -23.46875 L 22.109375 0 L 16.96875 0 Z M 8.171875 -8.75 L 14.03125 -8.75 L 11.09375 -17.53125 Z M 8.171875 -8.75 "/></g></g><g transform="translate(204.53761, 217.472095)"><g><path d="M 9.046875 -3.4375 C 9.898438 -3.4375 10.59375 -3.671875 11.125 -4.140625 C 11.664062 -4.609375 11.945312 -5.238281 11.96875 -6.03125 L 16.34375 -6.03125 C 16.332031 -4.84375 16.007812 -3.757812 15.375 -2.78125 C 14.738281 -1.800781 13.867188 -1.035156 12.765625 -0.484375 C 11.671875 0.0546875 10.457031 0.328125 9.125 0.328125 C 6.625 0.328125 4.65625 -0.460938 3.21875 -2.046875 C 1.78125 -3.640625 1.0625 -5.832031 1.0625 -8.625 L 1.0625 -8.921875 C 1.0625 -11.609375 1.773438 -13.75 3.203125 -15.34375 C 4.628906 -16.945312 6.59375 -17.75 9.09375 -17.75 C 11.269531 -17.75 13.015625 -17.128906 14.328125 -15.890625 C 15.648438 -14.648438 16.320312 -13 16.34375 -10.9375 L 11.96875 -10.9375 C 11.945312 -11.84375 11.664062 -12.578125 11.125 -13.140625 C 10.59375 -13.703125 9.882812 -13.984375 9 -13.984375 C 7.914062 -13.984375 7.097656 -13.585938 6.546875 -12.796875 C 5.992188 -12.015625 5.71875 -10.734375 5.71875 -8.953125 L 5.71875 -8.46875 C 5.71875 -6.675781 5.988281 -5.390625 6.53125 -4.609375 C 7.082031 -3.828125 7.921875 -3.4375 9.046875 -3.4375 Z M 9.046875 -3.4375 "/></g></g><g transform="translate(221.746593, 217.472095)"><g><path d="M 11.890625 0 C 11.671875 -0.414062 11.515625 -0.9375 11.421875 -1.5625 C 10.296875 -0.300781 8.832031 0.328125 7.03125 0.328125 C 5.320312 0.328125 3.90625 -0.164062 2.78125 -1.15625 C 1.65625 -2.144531 1.09375 -3.394531 1.09375 -4.90625 C 1.09375 -6.75 1.773438 -8.164062 3.140625 -9.15625 C 4.515625 -10.144531 6.5 -10.644531 9.09375 -10.65625 L 11.234375 -10.65625 L 11.234375 -11.65625 C 11.234375 -12.457031 11.023438 -13.097656 10.609375 -13.578125 C 10.191406 -14.066406 9.539062 -14.3125 8.65625 -14.3125 C 7.875 -14.3125 7.257812 -14.125 6.8125 -13.75 C 6.363281 -13.375 6.140625 -12.859375 6.140625 -12.203125 L 1.484375 -12.203125 C 1.484375 -13.210938 1.796875 -14.144531 2.421875 -15 C 3.046875 -15.863281 3.925781 -16.535156 5.0625 -17.015625 C 6.195312 -17.503906 7.472656 -17.75 8.890625 -17.75 C 11.046875 -17.75 12.753906 -17.207031 14.015625 -16.125 C 15.273438 -15.050781 15.90625 -13.535156 15.90625 -11.578125 L 15.90625 -4.03125 C 15.914062 -2.375 16.144531 -1.125 16.59375 -0.28125 L 16.59375 0 Z M 8.046875 -3.234375 C 8.734375 -3.234375 9.363281 -3.382812 9.9375 -3.6875 C 10.519531 -4 10.953125 -4.414062 11.234375 -4.9375 L 11.234375 -7.921875 L 9.484375 -7.921875 C 7.160156 -7.921875 5.921875 -7.117188 5.765625 -5.515625 L 5.75 -5.234375 C 5.75 -4.648438 5.953125 -4.171875 6.359375 -3.796875 C 6.773438 -3.421875 7.335938 -3.234375 8.046875 -3.234375 Z M 8.046875 -3.234375 "/></g></g><g transform="translate(239.438975, 217.472095)"><g><path d="M 1.0625 -8.84375 C 1.0625 -11.5625 1.671875 -13.722656 2.890625 -15.328125 C 4.109375 -16.941406 5.773438 -17.75 7.890625 -17.75 C 9.585938 -17.75 10.988281 -17.117188 12.09375 -15.859375 L 12.09375 -24.75 L 16.78125 -24.75 L 16.78125 0 L 12.5625 0 L 12.34375 -1.859375 C 11.1875 -0.398438 9.691406 0.328125 7.859375 0.328125 C 5.804688 0.328125 4.160156 -0.476562 2.921875 -2.09375 C 1.679688 -3.71875 1.0625 -5.96875 1.0625 -8.84375 Z M 5.71875 -8.515625 C 5.71875 -6.878906 6 -5.625 6.5625 -4.75 C 7.132812 -3.882812 7.96875 -3.453125 9.0625 -3.453125 C 10.5 -3.453125 11.507812 -4.054688 12.09375 -5.265625 L 12.09375 -12.15625 C 11.519531 -13.363281 10.519531 -13.96875 9.09375 -13.96875 C 6.84375 -13.96875 5.71875 -12.148438 5.71875 -8.515625 Z M 5.71875 -8.515625 "/></g></g><g transform="translate(258.0337, 217.472095)"><g><path d="M 9.8125 0.328125 C 7.257812 0.328125 5.175781 -0.457031 3.5625 -2.03125 C 1.957031 -3.601562 1.15625 -5.691406 1.15625 -8.296875 L 1.15625 -8.75 C 1.15625 -10.5 1.492188 -12.0625 2.171875 -13.4375 C 2.847656 -14.820312 3.804688 -15.882812 5.046875 -16.625 C 6.285156 -17.375 7.703125 -17.75 9.296875 -17.75 C 11.679688 -17.75 13.554688 -17 14.921875 -15.5 C 16.296875 -14 16.984375 -11.867188 16.984375 -9.109375 L 16.984375 -7.203125 L 5.875 -7.203125 C 6.03125 -6.066406 6.484375 -5.15625 7.234375 -4.46875 C 7.992188 -3.78125 8.957031 -3.4375 10.125 -3.4375 C 11.914062 -3.4375 13.316406 -4.082031 14.328125 -5.375 L 16.609375 -2.8125 C 15.910156 -1.832031 14.960938 -1.0625 13.765625 -0.5 C 12.578125 0.0507812 11.257812 0.328125 9.8125 0.328125 Z M 9.28125 -13.984375 C 8.351562 -13.984375 7.601562 -13.671875 7.03125 -13.046875 C 6.457031 -12.429688 6.09375 -11.539062 5.9375 -10.375 L 12.40625 -10.375 L 12.40625 -10.75 C 12.382812 -11.78125 12.101562 -12.578125 11.5625 -13.140625 C 11.03125 -13.703125 10.269531 -13.984375 9.28125 -13.984375 Z M 9.28125 -13.984375 "/></g></g><g transform="translate(275.871101, 217.472095)"><g><path d="M 6.15625 -17.4375 L 6.296875 -15.484375 C 7.535156 -16.992188 9.207031 -17.75 11.3125 -17.75 C 13.550781 -17.75 15.09375 -16.863281 15.9375 -15.09375 C 17.15625 -16.863281 18.898438 -17.75 21.171875 -17.75 C 23.066406 -17.75 24.472656 -17.195312 25.390625 -16.09375 C 26.316406 -15 26.78125 -13.347656 26.78125 -11.140625 L 26.78125 0 L 22.109375 0 L 22.109375 -11.125 C 22.109375 -12.101562 21.914062 -12.820312 21.53125 -13.28125 C 21.144531 -13.738281 20.460938 -13.96875 19.484375 -13.96875 C 18.085938 -13.96875 17.117188 -13.300781 16.578125 -11.96875 L 16.59375 0 L 11.9375 0 L 11.9375 -11.109375 C 11.9375 -12.109375 11.738281 -12.832031 11.34375 -13.28125 C 10.945312 -13.738281 10.269531 -13.96875 9.3125 -13.96875 C 7.988281 -13.96875 7.035156 -13.421875 6.453125 -12.328125 L 6.453125 0 L 1.78125 0 L 1.78125 -17.4375 Z M 6.15625 -17.4375 "/></g></g><g transform="translate(304.439947, 217.472095)"><g><path d="M 8.296875 -6.59375 L 11.515625 -17.4375 L 16.515625 -17.4375 L 9.5 2.703125 L 9.125 3.625 C 8.082031 5.90625 6.363281 7.046875 3.96875 7.046875 C 3.289062 7.046875 2.601562 6.941406 1.90625 6.734375 L 1.90625 3.203125 L 2.609375 3.21875 C 3.492188 3.21875 4.148438 3.082031 4.578125 2.8125 C 5.015625 2.550781 5.359375 2.109375 5.609375 1.484375 L 6.15625 0.046875 L 0.046875 -17.4375 L 5.0625 -17.4375 Z M 8.296875 -6.59375 "/></g></g></g><g fill="#424241" fill-opacity="1"><g transform="translate(58.325602, 177.434214)"><g><path d="M 33.265625 -12.390625 C 32.785156 -8.265625 31.257812 -5.078125 28.6875 -2.828125 C 26.125 -0.585938 22.710938 0.53125 18.453125 0.53125 C 13.835938 0.53125 10.140625 -1.117188 7.359375 -4.421875 C 4.578125 -7.734375 3.1875 -12.160156 3.1875 -17.703125 L 3.1875 -21.46875 C 3.1875 -25.09375 3.832031 -28.28125 5.125 -31.03125 C 6.425781 -33.789062 8.265625 -35.910156 10.640625 -37.390625 C 13.023438 -38.867188 15.785156 -39.609375 18.921875 -39.609375 C 23.066406 -39.609375 26.390625 -38.445312 28.890625 -36.125 C 31.398438 -33.8125 32.859375 -30.609375 33.265625 -26.515625 L 28.09375 -26.515625 C 27.644531 -29.617188 26.671875 -31.867188 25.171875 -33.265625 C 23.679688 -34.660156 21.597656 -35.359375 18.921875 -35.359375 C 15.628906 -35.359375 13.046875 -34.140625 11.171875 -31.703125 C 9.304688 -29.273438 8.375 -25.816406 8.375 -21.328125 L 8.375 -17.546875 C 8.375 -13.304688 9.257812 -9.929688 11.03125 -7.421875 C 12.800781 -4.921875 15.273438 -3.671875 18.453125 -3.671875 C 21.316406 -3.671875 23.515625 -4.316406 25.046875 -5.609375 C 26.578125 -6.910156 27.59375 -9.171875 28.09375 -12.390625 Z M 33.265625 -12.390625 "/></g></g></g><g fill="#424241" fill-opacity="1"><g transform="translate(94.084618, 177.434214)"><g><path d="M 34.59375 -18.265625 C 34.59375 -14.441406 33.945312 -11.101562 32.65625 -8.25 C 31.363281 -5.394531 29.535156 -3.21875 27.171875 -1.71875 C 24.816406 -0.21875 22.066406 0.53125 18.921875 0.53125 C 15.835938 0.53125 13.109375 -0.222656 10.734375 -1.734375 C 8.359375 -3.242188 6.507812 -5.394531 5.1875 -8.1875 C 3.875 -10.988281 3.203125 -14.234375 3.171875 -17.921875 L 3.171875 -20.734375 C 3.171875 -24.492188 3.820312 -27.8125 5.125 -30.6875 C 6.425781 -33.570312 8.269531 -35.78125 10.65625 -37.3125 C 13.050781 -38.84375 15.785156 -39.609375 18.859375 -39.609375 C 21.992188 -39.609375 24.753906 -38.847656 27.140625 -37.328125 C 29.523438 -35.816406 31.363281 -33.625 32.65625 -30.75 C 33.945312 -27.882812 34.59375 -24.546875 34.59375 -20.734375 Z M 29.46875 -20.796875 C 29.46875 -25.429688 28.535156 -28.984375 26.671875 -31.453125 C 24.804688 -33.929688 22.203125 -35.171875 18.859375 -35.171875 C 15.609375 -35.171875 13.046875 -33.929688 11.171875 -31.453125 C 9.304688 -28.984375 8.347656 -25.546875 8.296875 -21.140625 L 8.296875 -18.265625 C 8.296875 -13.773438 9.238281 -10.25 11.125 -7.6875 C 13.007812 -5.125 15.609375 -3.84375 18.921875 -3.84375 C 22.242188 -3.84375 24.816406 -5.050781 26.640625 -7.46875 C 28.460938 -9.894531 29.40625 -13.367188 29.46875 -17.890625 Z M 29.46875 -20.796875 "/></g></g></g><g fill="#424241" fill-opacity="1"><g transform="translate(131.855576, 177.434214)"><g><path d="M 34.5625 0 L 29.375 0 L 9.71875 -30.109375 L 9.71875 0 L 4.53125 0 L 4.53125 -39.0625 L 9.71875 -39.0625 L 29.4375 -8.828125 L 29.4375 -39.0625 L 34.5625 -39.0625 Z M 34.5625 0 "/></g></g></g><g fill="#424241" fill-opacity="1"><g transform="translate(171.021485, 177.434214)"><g><path d="M 34.375 -18.265625 C 34.375 -14.492188 33.773438 -11.242188 32.578125 -8.515625 C 31.378906 -5.785156 29.695312 -3.65625 27.53125 -2.125 L 34.5 3.359375 L 30.984375 6.59375 L 22.75 0.046875 C 21.46875 0.367188 20.109375 0.53125 18.671875 0.53125 C 15.597656 0.53125 12.867188 -0.222656 10.484375 -1.734375 C 8.109375 -3.242188 6.265625 -5.394531 4.953125 -8.1875 C 3.640625 -10.988281 2.960938 -14.234375 2.921875 -17.921875 L 2.921875 -20.734375 C 2.921875 -24.492188 3.570312 -27.8125 4.875 -30.6875 C 6.1875 -33.570312 8.035156 -35.78125 10.421875 -37.3125 C 12.804688 -38.84375 15.539062 -39.609375 18.625 -39.609375 C 21.769531 -39.609375 24.535156 -38.847656 26.921875 -37.328125 C 29.316406 -35.804688 31.15625 -33.617188 32.4375 -30.765625 C 33.726562 -27.910156 34.375 -24.578125 34.375 -20.765625 Z M 29.21875 -20.796875 C 29.21875 -25.390625 28.300781 -28.929688 26.46875 -31.421875 C 24.632812 -33.921875 22.019531 -35.171875 18.625 -35.171875 C 15.382812 -35.171875 12.828125 -33.929688 10.953125 -31.453125 C 9.085938 -28.984375 8.128906 -25.546875 8.078125 -21.140625 L 8.078125 -18.265625 C 8.078125 -13.796875 9.007812 -10.273438 10.875 -7.703125 C 12.75 -5.128906 15.347656 -3.84375 18.671875 -3.84375 C 22.003906 -3.84375 24.582031 -5.050781 26.40625 -7.46875 C 28.226562 -9.894531 29.164062 -13.367188 29.21875 -17.890625 Z M 29.21875 -20.796875 "/></g></g></g><g fill="#424241" fill-opacity="1"><g transform="translate(208.792443, 177.434214)"><g><path d="M 32.03125 -39.0625 L 32.03125 -12.5 C 32.019531 -8.8125 30.863281 -5.796875 28.5625 -3.453125 C 26.257812 -1.117188 23.144531 0.191406 19.21875 0.484375 L 17.84375 0.53125 C 13.570312 0.53125 10.164062 -0.617188 7.625 -2.921875 C 5.082031 -5.234375 3.789062 -8.410156 3.75 -12.453125 L 3.75 -39.0625 L 8.859375 -39.0625 L 8.859375 -12.609375 C 8.859375 -9.785156 9.632812 -7.585938 11.1875 -6.015625 C 12.75 -4.453125 14.96875 -3.671875 17.84375 -3.671875 C 20.757812 -3.671875 22.988281 -4.445312 24.53125 -6 C 26.082031 -7.5625 26.859375 -9.753906 26.859375 -12.578125 L 26.859375 -39.0625 Z M 32.03125 -39.0625 "/></g></g></g><g fill="#424241" fill-opacity="1"><g transform="translate(244.417324, 177.434214)"><g><path d="M 26.625 -18.0625 L 9.6875 -18.0625 L 9.6875 -4.21875 L 29.359375 -4.21875 L 29.359375 0 L 4.53125 0 L 4.53125 -39.0625 L 29.09375 -39.0625 L 29.09375 -34.828125 L 9.6875 -34.828125 L 9.6875 -22.265625 L 26.625 -22.265625 Z M 26.625 -18.0625 "/></g></g></g><g fill="#424241" fill-opacity="1"><g transform="translate(275.642746, 177.434214)"><g><path d="M 18.859375 -15.796875 L 9.6875 -15.796875 L 9.6875 0 L 4.515625 0 L 4.515625 -39.0625 L 17.4375 -39.0625 C 21.84375 -39.0625 25.226562 -38.0625 27.59375 -36.0625 C 29.96875 -34.0625 31.15625 -31.144531 31.15625 -27.3125 C 31.15625 -24.882812 30.492188 -22.765625 29.171875 -20.953125 C 27.859375 -19.148438 26.03125 -17.800781 23.6875 -16.90625 L 32.875 -0.328125 L 32.875 0 L 27.34375 0 Z M 9.6875 -20.015625 L 17.609375 -20.015625 C 20.160156 -20.015625 22.191406 -20.675781 23.703125 -22 C 25.210938 -23.320312 25.96875 -25.09375 25.96875 -27.3125 C 25.96875 -29.726562 25.25 -31.578125 23.8125 -32.859375 C 22.375 -34.148438 20.296875 -34.804688 17.578125 -34.828125 L 9.6875 -34.828125 Z M 9.6875 -20.015625 "/></g></g></g><g clip-path="url(#8dbb55db1f)"><path fill="#dedad5" d="M 128.160156 183.636719 C 128.160156 183.523438 128.070312 183.433594 127.957031 183.433594 L 127.574219 183.433594 L 127.574219 179.300781 C 127.574219 179.1875 127.480469 179.097656 127.371094 179.097656 L 123.972656 179.097656 C 123.859375 179.097656 123.769531 179.1875 123.769531 179.300781 L 123.769531 183.433594 L 123.382812 183.433594 C 123.269531 183.433594 123.179688 183.523438 123.179688 183.636719 L 123.179688 184.722656 C 122.230469 184.824219 121.488281 185.628906 121.488281 186.605469 L 121.488281 206.386719 C 121.488281 207.363281 122.230469 208.167969 123.179688 208.269531 L 123.179688 232.519531 C 123.179688 232.53125 123.183594 232.539062 123.183594 232.546875 C 123.1875 232.550781 123.183594 232.558594 123.183594 232.566406 L 124.773438 239.574219 L 125.035156 240.722656 C 125.101562 241.027344 125.359375 241.230469 125.671875 241.230469 C 125.980469 241.230469 126.238281 241.027344 126.304688 240.722656 L 126.566406 239.574219 L 128.15625 232.566406 C 128.15625 232.558594 128.15625 232.550781 128.15625 232.546875 C 128.15625 232.539062 128.160156 232.53125 128.160156 232.519531 Z M 128.160156 183.636719 " fill-opacity="1" fill-rule="nonzero"/></g><path fill="#dedad5" d="M 125.277344 186.605469 L 125.277344 206.386719 C 125.277344 207.363281 124.535156 208.167969 123.585938 208.269531 L 123.585938 232.316406 L 127.753906 232.316406 L 127.753906 183.839844 L 123.585938 183.839844 L 123.585938 184.722656 C 124.535156 184.824219 125.277344 185.628906 125.277344 186.605469 Z M 125.277344 186.605469 " fill-opacity="1" fill-rule="nonzero"/><g clip-path="url(#82f96ed69e)"><path fill="#424241" d="M 127.703125 232.722656 L 126.207031 239.324219 L 125.132812 239.324219 L 123.636719 232.722656 Z M 127.167969 179.503906 L 124.175781 179.503906 L 124.175781 183.398438 L 127.167969 183.398438 Z M 127.167969 179.503906 " fill-opacity="1" fill-rule="nonzero"/></g><g clip-path="url(#588edb7a7b)"><path fill="#424241" d="M 125.429688 240.632812 L 125.226562 239.730469 L 126.113281 239.730469 L 125.910156 240.632812 C 125.878906 240.773438 125.765625 240.824219 125.671875 240.824219 C 125.574219 240.824219 125.460938 240.773438 125.429688 240.632812 Z M 123.382812 207.875 C 124.203125 207.875 124.871094 207.207031 124.871094 206.386719 L 124.871094 186.605469 C 124.871094 185.785156 124.203125 185.117188 123.382812 185.117188 C 122.5625 185.117188 121.894531 185.785156 121.894531 186.605469 L 121.894531 206.386719 C 121.894531 207.207031 122.5625 207.875 123.382812 207.875 Z M 123.382812 207.875 " fill-opacity="1" fill-rule="nonzero"/></g><g clip-path="url(#137cb48765)"><path fill="#dedad5" d="M 128.160156 183.636719 C 128.160156 183.523438 128.070312 183.433594 127.957031 183.433594 L 127.574219 183.433594 L 127.574219 179.300781 C 127.574219 179.1875 127.480469 179.097656 127.371094 179.097656 L 123.972656 179.097656 C 123.859375 179.097656 123.769531 179.1875 123.769531 179.300781 L 123.769531 183.433594 L 123.382812 183.433594 C 123.269531 183.433594 123.179688 183.523438 123.179688 183.636719 L 123.179688 184.722656 C 122.230469 184.824219 121.488281 185.628906 121.488281 186.605469 L 121.488281 206.386719 C 121.488281 207.363281 122.230469 208.167969 123.179688 208.269531 L 123.179688 232.519531 C 123.179688 232.53125 123.183594 232.539062 123.183594 232.546875 C 123.1875 232.550781 123.183594 232.558594 123.183594 232.566406 L 124.773438 239.574219 L 125.035156 240.722656 C 125.101562 241.027344 125.359375 241.230469 125.671875 241.230469 C 125.980469 241.230469 126.238281 241.027344 126.304688 240.722656 L 126.566406 239.574219 L 128.15625 232.566406 C 128.15625 232.558594 128.15625 232.550781 128.15625 232.546875 C 128.15625 232.539062 128.160156 232.53125 128.160156 232.519531 Z M 124.175781 179.503906 L 127.167969 179.503906 L 127.167969 183.398438 L 124.175781 183.398438 Z M 121.894531 206.386719 L 121.894531 186.605469 C 121.894531 185.785156 122.5625 185.117188 123.382812 185.117188 C 124.203125 185.117188 124.871094 185.785156 124.871094 186.605469 L 124.871094 206.386719 C 124.871094 207.207031 124.203125 207.875 123.382812 207.875 C 122.5625 207.875 121.894531 207.207031 121.894531 206.386719 Z M 125.910156 240.632812 C 125.878906 240.773438 125.765625 240.824219 125.671875 240.824219 C 125.574219 240.824219 125.460938 240.773438 125.429688 240.632812 L 125.226562 239.730469 L 126.113281 239.730469 Z M 126.207031 239.324219 L 125.132812 239.324219 L 123.636719 232.722656 L 127.703125 232.722656 Z M 123.585938 232.316406 L 123.585938 208.269531 C 124.535156 208.167969 125.277344 207.363281 125.277344 206.386719 L 125.277344 186.605469 C 125.277344 185.628906 124.535156 184.824219 123.585938 184.722656 L 123.585938 183.839844 L 127.753906 183.839844 L 127.753906 232.316406 Z M 123.585938 232.316406 " fill-opacity="1" fill-rule="nonzero"/></g><g clip-path="url(#b9b9af0407)"><path fill="#dedad5" d="M 128.167969 238.644531 L 128.402344 238.605469 L 129.054688 238.5 C 131.300781 237.796875 132.953125 237.332031 134.011719 237.097656 C 138.171875 236.421875 141.019531 235.882812 142.554688 235.480469 L 150.75 233.273438 C 151.671875 233.121094 155.113281 232.859375 161.070312 232.488281 C 163.8125 232.308594 165.640625 232.238281 166.5625 232.28125 C 168.425781 232.34375 171.570312 232.996094 175.992188 234.246094 C 176.621094 234.464844 177.460938 234.832031 178.519531 235.347656 L 186.011719 239.191406 C 186.761719 239.5625 187.472656 239.816406 188.144531 239.953125 L 191.960938 240.554688 L 195.265625 241.296875 C 196.503906 241.480469 197.527344 241.59375 198.332031 241.636719 C 198.753906 241.660156 199.183594 241.65625 199.621094 241.621094 L 201.570312 241.390625 C 203.097656 241.320312 204.261719 241.246094 205.066406 241.160156 C 205.96875 241.074219 206.613281 240.996094 207.003906 240.925781 C 207.464844 240.875 209.015625 240.539062 211.652344 239.921875 C 212.390625 239.746094 213.003906 239.558594 213.492188 239.355469 C 224.359375 234.175781 230.082031 231.484375 230.652344 231.28125 C 231.25 230.929688 234.132812 229.828125 239.296875 227.972656 L 239.65625 227.585938 C 239.445312 227.53125 239.085938 227.496094 238.566406 227.480469 C 235.292969 227.53125 232.578125 227.886719 230.421875 228.546875 C 227.101562 229.371094 220.792969 231.332031 211.503906 234.433594 C 208.808594 234.808594 207.011719 235.023438 206.117188 235.078125 C 204.941406 235.132812 203.296875 235.121094 201.179688 235.042969 L 199.378906 235.113281 C 199.105469 235.136719 198.230469 235 196.753906 234.703125 L 193.613281 233.71875 L 189.597656 232.785156 C 185.269531 230.261719 181.410156 228.507812 178.027344 227.515625 C 175.398438 226.941406 173.011719 226.535156 170.875 226.292969 C 169.875 226.167969 168.773438 226.070312 167.5625 225.996094 C 167.128906 225.972656 166.523438 226.003906 165.746094 226.085938 C 156.925781 227.328125 151.421875 228.285156 149.230469 228.964844 C 148.371094 229.214844 145.699219 230.375 141.210938 232.441406 L 133.382812 235.539062 C 132.386719 236.003906 130.898438 236.953125 128.917969 238.382812 C 128.742188 238.503906 128.492188 238.589844 128.167969 238.644531 " fill-opacity="1" fill-rule="nonzero"/></g></svg>